<svg viewBox="0 0 500 500" xmlns="http://www.w3.org/2000/svg"><rect width="5.33" height="4.926" x="-2.667" y="-2.463" fill="#c21c34" rx=".41" transform="rotate(-3.9 564.242 -3418.986)"/><path d="m311.774 33.284.975 3.428a.13.13 0 0 1-.105.166l-9.547 1.451a.127.127 0 0 1-.14-.097l-.616-2.261a.13.13 0 0 1 .089-.159l9.182-2.619c.07-.018.14.022.162.091Zm-70.114 3.81c1.957-3.296 9.033-3.229 11.852-2.388 2.716.814 4.183 2.76 4.405 5.84.004.113-.049.169-.161.169h-4.651c-.166 0-.267-.082-.3-.246-.722-3.489-7.291-2.703-6.802-.444.733 3.398 11.211 1.52 12.477 7.394.866 4.023-1.934 6.842-5.768 7.493-5.178.884-11.298-.009-12.686-6.094a.39.39 0 0 1 .378-.475l4.994-.04c.097-.004.155.045.175.143.55 3.045 4.464 3.27 6.662 2.29 2.305-1.033.624-3.311-1.122-3.61-2.764-.471-7.684-1.634-9.408-4.04-1.315-1.835-1.331-3.832-.045-5.992Zm37.207 1.777c.076.141.275.15.363.017 2.885-4.437 10.312-2.075 11.446 2.602.209.87.182 2.4-.08 4.586a4526.12 4526.12 0 0 1-1.397 11.502c-.019.15-.107.219-.264.203l-4.719-.57c-.14-.019-.2-.096-.184-.231.513-4.185 1.002-8.373 1.465-12.562.432-3.868-4.625-5.144-6.163-1.373-.176.433-.328 1.149-.452 2.148-.456 3.667-.902 7.336-1.342 11.004-.016.137-.093.196-.228.18l-4.937-.557a.22.22 0 0 1-.195-.251c.529-3.904 1.01-7.835 1.442-11.789.203-1.853.352-3.607-1.94-4.104-3.777-.83-4.145 1.714-4.525 4.566-.468 3.54-.892 7.079-1.274 10.605a.177.177 0 0 1-.194.158l-4.946-.584c-.136-.016-.195-.093-.177-.229l2.347-19.413c.014-.137.092-.197.23-.182l4.487.534c.194.022.279.129.257.324l-.26 1.997a.183.183 0 0 0 .335.125c.764-1.175 1.87-1.898 3.319-2.176 3.493-.668 6.022.487 7.586 3.47Zm-56.354-.424c1.322-2.162 3.273-3.243 5.857-3.25.155-.002.24.073.258.23l.596 4.853a.188.188 0 0 1-.186.207c-4.651.013-5.856 2.15-5.333 6.491a812.87 812.87 0 0 0 1.144 9.031.222.222 0 0 1-.196.248l-4.867.606c-.147.016-.232-.049-.251-.2l-2.442-19.365c-.018-.142.044-.224.184-.243l4.449-.571c.187-.023.292.059.317.241l.225 1.671a.13.13 0 0 0 .245.051Z" fill="#c21c34"/><rect width="5.324" height="19.981" x="-2.662" y="-9.99" fill="#c21c34" rx=".33" transform="rotate(-4.2 734.64 -3180.727)"/><path d="M170.098 49.492c-.093-6.025 4.061-10.646 9.95-11.79 5.643-1.094 9.834.827 12.573 5.765a.203.203 0 0 1-.113.295l-5.027 1.662a.346.346 0 0 1-.381-.121c-2.136-2.957-4.844-3.673-8.123-2.145-5.996 2.791-2.535 12.49.605 16.074 1.565 1.785 3.614 2.315 6.149 1.59 3.208-.919 4.645-3.167 4.307-6.744a.277.277 0 0 1 .189-.292l4.944-1.607a.205.205 0 0 1 .269.169c1.28 8.839-6.257 15.338-14.758 13.513-7.017-1.505-10.489-9.857-10.584-16.369Zm41.287 7.371c-2.097 2.313-4.676 3.447-7.736 3.403-4.159-.062-6.115-3.462-5.488-7.25.558-3.39 4.731-4.891 7.743-5.876 1.22-.398 3.472-1.271 2.675-3.149-1.024-2.42-6.695-1.185-6.521 2.315.007.171-.071.275-.24.309l-4.432.899c-.138.027-.22-.028-.249-.164-1.184-5.987 4.408-8.377 9.195-8.729 3.871-.283 6.805 1.175 7.751 5.062.754 3.081 1.715 7.52 2.888 13.315.024.127-.026.203-.148.228l-4.486.956c-.151.031-.254-.024-.31-.17l-.415-1.103c-.051-.143-.13-.157-.227-.046Zm-1.846-7.777c-1.84 1.223-7.087 2.525-6.059 5.509.672 1.966 2.445 1.816 4.011 1.032 2.535-1.266 3.291-3.421 2.273-6.465-.039-.121-.114-.148-.225-.076Zm111.763 1.264a755.26 755.26 0 0 0-2.736 7.689c-1.711 4.879 4.067 6.63 5.675 2.204.603-1.658 1.22-3.314 1.851-4.964.056-.15.159-.197.309-.142l4.175 1.506c.167.062.22.176.161.337-2.267 6.289-4.099 12.99-12.777 9.652-4.621-1.78-5.995-5.594-4.44-10.062a943.313 943.313 0 0 1 5.977-16.604c.054-.14.149-.184.29-.136l4.496 1.638c.142.054.188.151.138.293l-1.663 4.604a.24.24 0 0 0 .148.312l10.048 3.558c.14.053.185.146.136.287l-1.136 3.121c-.054.148-.158.197-.307.143l-10.035-3.58c-.154-.056-.257-.006-.31.144Zm-17.472 9.911a.125.125 0 0 0-.17-.123c-3.197 1.306-6.31 1.05-9.337-.767-1.779-1.066-2.492-2.737-2.146-5.01.615-4 2.929-5.869 6.944-5.609 2.125.133 6.14.824 7.201-.179 2.588-2.462-4.453-6.253-6.384-1.934-.06.137-.162.189-.309.153l-4.407-1.099c-.149-.04-.204-.137-.159-.29 1.09-3.592 3.572-5.227 7.451-4.898 3.931.329 8.956 1.907 9.517 6.362.132 1.059-.173 3.089-.918 6.094a825.167 825.167 0 0 1-2.476 9.703c-.045.166-.151.229-.316.186l-4.287-1.094a.368.368 0 0 1-.271-.375l.067-1.12Zm-3.608-7.741c-2.755.022-4.079 3.771-.838 4.651 2.29.623 4.098-.044 5.42-2.004.454-.669.626-1.749.884-2.561.047-.15-.007-.223-.165-.215-1.789.074-3.555.118-5.301.129Z" fill="#c21c34"/><rect width="5.33" height="4.942" x="-2.667" y="-2.471" fill="#c21c34" rx=".45" transform="rotate(23.8 55.49 833.389)"/><rect width="5.324" height="20.007" x="-2.662" y="-10.003" fill="#c21c34" rx=".26" transform="rotate(23.7 19.616 829.468)"/><path d="M144.233 64.17c.361-4.942 7.1-8.438 11.136-5.239.759.599 1.672 1.887 2.742 3.867 1.907 3.53 3.8 7.055 5.683 10.58a.232.232 0 0 1-.098.313l-4.306 2.258a.293.293 0 0 1-.398-.122 437.173 437.173 0 0 0-6.272-11.612c-.867-1.551-2.563-1.449-4.024-.748-2.596 1.248-3.103 3.336-1.52 6.267 1.749 3.224 3.484 6.45 5.206 9.681a.198.198 0 0 1-.08.271l-4.328 2.24c-.148.077-.259.043-.334-.103l-9.204-17.175c-.078-.146-.045-.259.103-.34l3.958-2.096a.332.332 0 0 1 .451.134l1.019 1.878c.054.096.191.103.246.01a.198.198 0 0 0 .02-.064Zm198.237-3.169c6.019-7.341 19.483.1 15.598 9.032-.047.11-.127.138-.238.082l-4.362-2.272c-.137-.07-.185-.181-.14-.329 1.078-3.687-3.379-6.413-6.112-3.878-1.999 1.847-4.123 5.738-3.063 8.507 1.005 2.602 4.644 2.924 6.354.71a.27.27 0 0 1 .345-.076l4.343 2.273c.113.058.133.138.06.241-3.782 5.128-11.087 4.488-14.843-.021-3.577-4.293-1.114-10.402 2.058-14.269Zm-217.943.918 3.122 1.531a.177.177 0 0 1 .073.258l-5.222 7.948a.181.181 0 0 1-.229.06l-2.026-1.03a.177.177 0 0 1-.08-.236l4.125-8.446a.177.177 0 0 1 .237-.085ZM116.6 384.876C67.447 334.18 50.428 260.28 72.359 193.053c25.858-79.258 100.82-132.615 184.452-130.438 59.003 1.539 114.662 31.242 148.683 79.485 44.696 63.379 46.794 146.7 5.508 212.286-36.482 57.956-102.148 91.344-170.38 87.436-46.865-2.682-91.394-23.293-124.022-56.946Zm176.932-224.663c.799-3.016 1.73-6.379 2.306-9.067 4.781-22.428 3.727-47.15-4.575-68.717-.092-.24-.231-.273-.417-.093-1.676 1.615-3.458 3.135-5.506 4.379a139.35 139.35 0 0 1-19.041 9.651.28.28 0 0 0-.172.306 243.52 243.52 0 0 1 2.495 28.59c.287 10.422-.592 21.682-3.313 31.715-.191.696-.44 1.378-.754 2.043-.073.154-.147.154-.22 0-8.794-18.98-11.264-38.739-7.405-59.271.706-3.759 1.854-7.694 3.445-11.808.062-.156.018-.194-.126-.109-26.793 15.305-32.435 42.025-25.301 70.235.043.173-.02.227-.184.162-37.614-15.123-64.051 32.868-37.822 59.823 15.039 15.449 39.318 12.943 51.686-4.177.092-.128.207-.158.353-.094 2.436 1.127 4.188 1.773 5.258 1.939 15.567 2.449 31.711.008 43.659-10.922 7.612-6.96 11.949-15.241 14.479-25.172 4.639-18.196 6.205-39.026-1.975-56.589-1.514-3.251-3.406-5.984-5.785-8.545a.16.16 0 0 0-.272.054.135.135 0 0 0-.005.082c2.385 16.014-.186 32.978-10.596 45.69-.235.289-.305.252-.212-.105Zm-143.126 60.708c8.204 10.015 18.455 17.091 30.844 21.156a.152.152 0 0 0 .191-.18.12.12 0 0 0-.024-.054c-3.301-4.515-6.453-8.948-10.291-13.126a4722.338 4722.338 0 0 1-14.528-15.873c-3.112-3.417-5.058-7.499-2.76-12.005 1.134-2.217 5.908 4.332 6.685 5.026 11.442 10.172 24.859 18.067 35.989 28.591 14.855 14.044 21.919 32.286 22.028 52.876 0 .034.013.054.043.064a.426.426 0 0 0 .041.008c.048 0 .072-.034.072-.1.677-21.163-7.535-41.926-23.272-55.72-6.757-5.928-14.921-12.399-24.486-19.413-1.986-1.459-5.087-4.08-9.302-7.859-1.993-1.79-4.243-6.318-7.509-6.012-.743.07-1.312.41-1.706 1.016-2.543 3.908-1.951 9.934 1.256 13.505a4990.765 4990.765 0 0 0 18.412 20.383c1.035 1.142 1.853 2.416 2.755 3.626.172.233.128.287-.133.161-9.267-4.444-16.878-10.586-23.24-18.607-4.927-6.228-10.285-13.053-14.702-19.887-.671-1.041-1.436-2.476-2.29-4.306-3.105-6.641-7.792-12.986-13.706-17.39-2.001-1.491-8.526-6.144-11.031-5.121-1.432.585-1.328 2.581-.643 3.736 4.334 7.304 8.233 14.782 11.146 22.768 4.143 11.363 8.849 21.962 14.9 32.452 2.143 3.715 4.513 6.979 7.112 9.79 7.503 8.123 16 15.252 25.489 21.387 11.92 7.708 20.51 18.993 25.369 32.345.051.147.112.147.181.004.461-1.014-1.755-5.807-2.481-7.339-5.441-11.505-13.061-20.015-23.546-27.058-11.684-7.851-24.419-18.806-31.24-31.308-5.474-10.032-9.929-20.548-13.875-31.526-2.849-7.907-6.677-15.446-10.997-22.654a.159.159 0 0 1 .136-.241c.023 0 .046.003.067.013 9.918 4.385 16.712 12.15 21.242 21.842.833 1.786 1.593 3.202 2.276 4.246 4.639 7.087 10.247 14.343 15.528 20.784Zm163.457 15.617c1.191-1.654 2.022-2.724 2.492-3.203a2232.693 2232.693 0 0 0 19.22-19.706c3.805-3.948 5.296-8.993 2.979-14.215-.408-.92-1.1-1.42-2.085-1.499-3.103-.242-5.697 4.244-7.783 5.966-4.083 3.371-7.721 6.148-10.916 8.335-7.528 5.148-14.203 9.932-20.024 14.352-2.767 2.103-4.949 3.885-6.545 5.35-15.291 13.985-23.498 33.769-23.814 54.469 0 .028.015.042.041.038.098-.011.141-.077.146-.176.897-23.156 11.156-43.597 29.658-57.42 7.551-5.639 12.772-9.415 15.667-11.328 6.976-4.603 12.734-8.732 17.272-12.39 2.075-1.667 3.18-3.77 5.656-5.169a.585.585 0 0 1 .809.24c2.166 4.202.52 8.803-2.614 11.996a2795.28 2795.28 0 0 1-17.037 17.226c-3.616 3.631-6.647 7.748-9.884 11.724a.123.123 0 0 0 .081.198h.002a.11.11 0 0 0 .04-.003c12.72-3.003 24.013-10.687 32.48-20.441 6.732-7.759 14.328-16.164 19.246-25.367 4.805-8.994 11.948-16.024 21.459-19.845a.255.255 0 0 1 .354.268.26.26 0 0 1-.044.118 131.544 131.544 0 0 0-12.623 23.446c-3.777 9.121-7.937 17.956-12.71 26.606-2.937 5.318-5.995 9.744-9.174 13.278-7.41 8.229-17.074 15.729-27.014 21.864-3.066 1.887-5.353 3.448-6.861 4.67-9.11 7.369-15.881 16.576-20.315 27.624-.108.264-.072.554.109.87.073.125.138.121.196-.011 5.46-13.116 14.672-24.379 26.959-31.56a130.649 130.649 0 0 0 25.82-19.735c4.815-4.729 8.456-9.955 11.797-15.764 4.853-8.429 9.078-16.937 12.674-25.519 3.682-8.793 7.864-16.663 12.549-23.611 3.048-4.52-.236-5.957-4.149-4.216-9.822 4.372-17.168 12.339-21.983 21.81-1.176 2.312-2.73 4.565-3.995 6.205-6.423 8.321-11.848 14.885-16.27 19.695-5.846 6.364-13.111 11.338-21.795 14.923-.131.054-.154.022-.071-.093ZM148.87 382.578c6.105 10.067 15.872 17.739 26.209 23.297 17.108 9.204 37.041 13.96 56.733 15.45 23.608 1.786 48.516-.982 71.012-9.519 16.011-6.08 35.124-17.562 41.966-34.207 6.101-14.845 2.115-28.968-8.409-40.595-4.62-5.104-9.605-9.288-14.956-12.556-17.987-10.975-39.864-16.776-61.499-18.385a.82.82 0 0 1-.342-.111 1.239 1.239 0 0 0-1.09-.117 1.014 1.014 0 0 1-.417.056 173.61 173.61 0 0 0-53.086 4.306c-22.828 5.443-53.996 19.616-60.724 44.895-2.476 9.295-.319 19.379 4.603 27.486ZM364.58 87.623c-3.842.256-6.794-1.106-8.85-4.085-2.436-3.512 1.094-8.395 4.903-8.672 2.419-.178 5.467 1.384 7.849 2.426 3.094 1.349 4.721-1.119 2.172-3.368-1.831-1.611-3.578-1.697-5.253-.26-.114.097-.232.105-.355.022l-3.639-2.373c-.131-.083-.153-.195-.068-.321 3.5-5.418 9.985-2.464 13.44.959 2.492 2.467 2.961 5.42 1.094 8.38-1.965 3.121-4.454 6.914-7.463 11.373-.079.117-.177.139-.295.063l-3.78-2.462c-.128-.085-.161-.196-.102-.334l.486-1.147c.062-.141.013-.209-.139-.201Zm-.583-8.213c-2.197-.78-5.057 1.55-3.158 3.496 2.725 2.785 6.53 1.531 8.077-1.76.052-.109.019-.179-.1-.212a63.688 63.688 0 0 1-4.819-1.524Z" fill="#c21c34"/><path d="M137.103 89.673c-11.569 6.706-22.693-10.557-10.972-17.997 11.628-7.37 23.162 10.935 10.972 17.997Zm-9.516-13.381c-2.879 2.882-.398 6.914 1.98 9.077 2.124 1.93 5.37 1.128 6.995-1.104 2.846-3.915-3.834-13.117-8.975-7.973Z" fill="#c21c34"/><rect width="5.339" height="4.942" x="-2.671" y="-2.471" fill="#c21c34" rx=".52" transform="rotate(-38.3 167.51 -118.564)"/><rect width="5.324" height="20.04" x="-2.662" y="-10.019" fill="#c21c34" rx=".32" transform="rotate(-38.6 187.798 -124.693)"/><path d="M388.63 109.753c-11.071-7.395-4.287-20.648 5.355-24.743 10.065-4.278 21.735 7.704 14.716 17.212-.079.103-.169.113-.267.027l-3.816-3.466c-.104-.093-.131-.204-.075-.329 1.611-3.874.649-6.74-2.887-8.595-6.288-3.301-18.609 10.092-10.736 15.502 2.375 1.631 4.959 1.509 7.26-.152a.301.301 0 0 1 .383.027l3.867 3.532a.19.19 0 0 1-.02.293c-4.309 3.063-9.273 3.702-13.78.692ZM98.15 94.69c2.631-5.111 9.566-8.493 14.402-3.837.093.09.092.179-.002.267l-3.65 3.305a.253.253 0 0 1-.321.008c-2.251-1.803-5.696-.342-6.062 2.344-.47 3.434 5.312 9.308 8.8 7.294 1.989-1.145 2.455-2.916 1.397-5.314a.245.245 0 0 1 .063-.291l3.584-3.226c.078-.07.151-.061.211.027 4.341 6.269-1.366 15.211-8.769 14.152-5.754-.819-12.663-8.881-9.653-14.729Zm3.066 22.613c-.025.265-.022.527.005.787.017.147.007.292-.03.437-1.02 4.138-5.649 9.398-10.284 6.089-8.626-6.159 4.576-13.533.56-16.137-1.502-.969-3.559.949-4.242 2.16-.717 1.26-.613 2.455.313 3.584.088.109.087.217-.01.321l-3.017 3.3c-.093.104-.193.111-.301.018-4.734-4.062-1.276-9.61 2.416-12.597 3.026-2.438 6.301-2.691 9.272-.106a617.183 617.183 0 0 1 10.024 8.903c.124.115.131.236.016.359l-3.023 3.279c-.123.133-.259.152-.412.056l-.97-.605a.207.207 0 0 0-.317.152Zm-8.623 1.045c.212 1.541 2.124 2.882 3.53 1.836 1.793-1.327 2.453-3.821 1.518-5.873-.419-.916-1.35-1.625-2.099-2.352-.093-.092-.168-.077-.223.039-.711 1.432-2.925 4.882-2.726 6.35Zm313.53 6.674c-4.526-1.045-10.552-6.935-5.733-11.592 5.234-5.051 9.411.666 13.486 3.316a1.707 1.707 0 0 0 2.589-.971c.47-1.653-1.439-3.85-2.772-4.399-.843-.347-1.749-.197-2.716.452a.255.255 0 0 1-.333-.047l-3.014-3.419a.23.23 0 0 1 .034-.339c3.067-2.347 6.138-2.185 9.216.478 3.807 3.301 6.905 8.362 2.095 12.609a639.485 639.485 0 0 1-10.147 8.786c-.12.101-.23.093-.335-.026l-2.949-3.363c-.122-.14-.123-.283-.01-.427l.671-.822c.098-.122.07-.202-.082-.236Zm-2.11-5.464c1.059 1.939 3.487 2.852 5.547 2.205.994-.312 1.89-1.151 2.711-1.846.114-.094.103-.176-.029-.24-1.667-.847-4.536-3.487-6.162-3.44-1.595.046-2.945 1.725-2.067 3.321Zm-321.35 11.064-7.784-10.793a.149.149 0 0 1 0-.162l3.187-4.213a.138.138 0 0 1 .223.003l11.69 17.435a.135.135 0 0 1-.005.157l-3.215 4.29a.14.14 0 0 1-.146.051l-20.22-6.132a.134.134 0 0 1-.068-.21l3.374-4.478a.132.132 0 0 1 .152-.052l12.661 4.313a.135.135 0 0 0 .172-.159.148.148 0 0 0-.021-.05Zm347.159-6.071a.172.172 0 0 0-.036.237l6.215 8.662c.097.135.077.25-.06.348l-2.692 1.894c-.132.095-.244.079-.337-.055l-6.194-8.624a.183.183 0 0 0-.25-.041 762.809 762.809 0 0 0-6.462 4.46c-1.331.926-2.822 2.576-1.979 4.235 2.28 4.486 6.997-.236 9.455-1.938.124-.085.225-.066.31.055l2.614 3.61c.091.127.074.236-.05.327-4.021 2.91-8.619 7.095-13.675 3.477-1.496-1.072-2.606-2.531-3.331-4.384-1.903-4.845.77-7.66 4.447-10.223 4.373-3.055 8.74-6.116 13.105-9.183.117-.08.219-.065.301.053l2.781 3.854c.095.132.076.245-.055.338l-4.107 2.898Zm-368.35 29.748c-5.786-4.603-4.477-12.881 1.29-16.735 4.908-3.278 11.886-.451 14.927 3.989 2.873 4.189 1.306 9.723-2.224 13.029-4.181 3.917-9.834 3.024-13.993-.283Zm3.094-4.589c3.3 2.67 8.061 3.856 9.684-1.383 1.404-4.544-7.09-9.423-10.286-5.761-2.273 2.601-2.072 4.984.602 7.144Zm379.918-7.581 1.117-1.913a.198.198 0 0 1 .269-.067l8.199 4.717a.194.194 0 0 1 .072.266l-1.782 2.963a.193.193 0 0 1-.282.056l-7.544-5.767a.197.197 0 0 1-.049-.255Zm-5.805 18.025c-13.297 6.262-21.936-15.546-5.661-19.621 6.991-1.75 13.697 5.158 12.352 12.094-.7 3.582-3.416 5.984-6.691 7.527Zm-7.884-4.844c3.95 3.236 14.307-3.732 7.972-8.992-3.93-3.271-14.414 3.706-7.972 8.992Z" fill="#c21c34"/><rect width="27.479" height="5.306" x="-13.74" y="-2.654" fill="#c21c34" rx=".32" transform="rotate(-25.1 588.874 -918.739)"/><path d="M49.502 166.75c-1.441-2.82-1.246-5.527.583-8.124 2.806-3.972 6.092-3.008 10.164-1.161 3.541 1.607 7.078 3.219 10.618 4.834a.13.13 0 0 1 .06.177l-2.105 4.538c-.063.13-.158.167-.293.106a566.324 566.324 0 0 0-9.719-4.424c-2.615-1.157-4.666-2.369-6.131.784-1.558 3.359.372 4.751 3.262 6.094a1138.23 1138.23 0 0 0 9.406 4.315c.154.066.194.178.122.33l-2.03 4.37c-.064.137-.164.174-.299.111l-17.856-8.14a.275.275 0 0 1-.136-.366l1.887-4.04a.316.316 0 0 1 .431-.155l1.892.899c.194.094.242.044.144-.148Zm168.685 56.919c-18.629-1.882-29.936-20.245-26.755-38.004 3.724-20.827 26.4-32.916 45.234-21.201a.543.543 0 0 1 .244.306c.924 2.661 1.93 5.287 3.019 7.884 1.324 3.174 4.672 11.484-.148 13.142-3.187 1.092-7.659-.529-10.709-1.81-11.912-5.022-23.888 2.221-20.857 15.795.528 2.367 2.827 3.164 4.709 1.633 1.088-.884 2.145-1.953 3.383-2.477 3.154-1.345 7.332-.155 10.314 1.364.892.454 2.781 1.759 5.67 3.91a81.91 81.91 0 0 0 12.154 7.506c.128.066.149.155.058.271-6.375 8.146-16.008 12.716-26.316 11.681Z" fill="#c21c34"/><rect width="4.961" height="5.306" x="-2.477" y="-2.654" fill="#c21c34" rx=".27" transform="rotate(-23 638.49 -1045.367)"/><rect width="20.15" height="5.297" x="-10.076" y="-2.649" fill="#c21c34" rx=".27" transform="rotate(-22.8 649.646 -1018.507)"/><path d="M450.912 195.524c-8.679 1.751-14.691-9.999-7.587-15.673 5.615-4.486 15.053-5.691 17.663 3.125 1.315 4.444.215 8.604-4.267 10.706a.204.204 0 0 1-.283-.119l-1.619-4.644a.28.28 0 0 1 .133-.339c3.175-1.662 2.126-6.389-1.036-6.911-3.201-.523-11.001 2.296-8.611 6.965.733 1.437 2.05 2.09 3.949 1.957.136-.009.224.048.265.173l1.554 4.476c.053.155 0 .251-.161.284Zm-400.806-4.502c3.176.736 5.231-.415 6.162-3.453.259-.851.027-1.779-.694-2.784a.93.93 0 0 0-.276-.258c-.494-.314 1.186-4.502 1.393-5.158.065-.207.185-.244.359-.114 5.162 3.902 4.313 11.254-.03 15.202-3.062 2.784-8.19 2.033-11.66.512-5.404-2.365-7.584-7.188-5.066-12.926 2.614-5.953 8.335-5.937 13.747-4.181a.272.272 0 0 1 .173.347l-4.261 12.533c-.05.149 0 .242.153.28Zm-3.312-1.582 2.434-7.142a.192.192 0 0 0-.117-.238l-.148-.05c-2.855-1.069-5.798 1.355-5.295 4.361a3.963 3.963 0 0 0 2.744 3.136l.149.05c.096.031.2-.021.233-.117Zm-4.315 11.478c1.057-1.677 2.615-2.326 4.674-1.945 2.787.516 5.58 1.092 8.379 1.729.148.035.207.126.173.276l-1.113 4.987c-.029.123-.103.171-.224.146a5141.23 5141.23 0 0 0-7.041-1.504c-2.145-.454-3.469.445-3.978 2.705a210.219 210.219 0 0 0-1.329 6.372c-.025.131.028.21.156.237l9.983 2.141c.143.033.201.12.169.263l-1.083 4.839c-.049.216-.179.3-.388.251l-26.033-5.61c-.143-.031-.202-.118-.168-.261a506.761 506.761 0 0 1 2.741-12.413c.422-1.799.94-3.146 1.548-4.041 3.352-4.915 11.721-4.4 13.324 1.795a.114.114 0 0 0 .19.054h.001l.019-.021Zm-11.753 10.554 6.404 1.383a.344.344 0 0 0 .412-.267l1.512-7.002c.431-1.985-.736-3.922-2.603-4.324l-.32-.068c-1.865-.403-3.725.877-4.155 2.861l-1.514 7.003a.345.345 0 0 0 .264.414Zm418.161-.608c-3.445-2.921-6.047-10.618-.204-12.658 7.061-2.47 8.372 3.746 10.633 8.561.935 1.993 3.491 1.454 3.673-.716.182-2.163-.854-4.844-3.657-4.603-.157.013-.255-.058-.29-.212l-1.035-4.372c-.034-.152.025-.242.173-.269 6.142-1.178 8.647 4.147 9.035 9.168.339 4.334-1.484 6.689-5.615 7.698a840.199 840.199 0 0 1-12.675 2.991c-.151.034-.244-.024-.281-.175l-1.033-4.399a.267.267 0 0 1 .167-.309l1.053-.402c.189-.075.207-.176.056-.303Zm2.33-2.35c1.638 1.319 3.461 1.506 5.467.559.122-.058.135-.133.042-.228-1.562-1.63-2.92-7.921-6.334-5.515-1.819 1.282-.499 4.121.825 5.184Z" fill="#c21c34"/><circle cx="457.923" cy="242.047" r="5.192" fill="#c21c34"/><circle cx="39.981" cy="243.265" r="5.197" fill="#c21c34"/><path d="M452.334 276.134c-5.679-1.451-8.141-7.112-6.758-12.538 1.689-6.62 9.271-8.481 15.087-6.768 6.235 1.834 8.513 8.512 6.108 14.048-2.366 5.449-9.234 6.594-14.437 5.258Zm-2.204-8.626c.761 4.192 6.77 4.202 9.842 3.156 3.287-1.122 3.909-5.794 1.429-7.752-1.831-1.442-5.156-1.583-7.441-1.049-3.107.725-4.384 2.608-3.83 5.645ZM39.963 290.86c-6.256 3.127-12.688-.634-13.356-7.46-.67-6.87.96-12.736 8.652-13.657.156-.02.242.049.249.21l.245 4.934c.009.152-.062.246-.215.28-6.238 1.298-5.391 12.25.613 11.174 5.46-.978.788-15.118 10.964-16.481 12.694-1.701 13.88 19.473 1.274 20.522-.111.009-.168-.043-.175-.153l-.253-4.937c-.008-.161.067-.251.229-.274 1.865-.235 3.057-1.137 3.581-2.71.608-1.836.486-5.706-1.481-6.922-2.273-1.406-4.444.348-4.945 2.601-.824 3.721-1.688 11.026-5.382 12.873Zm407.835-8.4-2.083-.147c-.139-.013-.204-.088-.193-.229l.379-4.845c.013-.132.082-.194.211-.186 7.115.507 14.218 1.037 21.305 1.587 12.768.99 11.67 19.626-.418 19.667-.215 0-.313-.105-.294-.318l.334-4.361a.329.329 0 0 1 .351-.305c5.181.316 5.661-8.289.748-9.262-.897-.175-2.125-.283-3.684-.322-.187-.003-.209.055-.064.172 1.343 1.115 2.037 2.382 2.085 3.796.175 5.137-2.15 8.255-6.977 9.348-4.581 1.037-10.773-.098-13.676-4.04-2.394-3.255-1.807-8.354 2.01-10.384a.09.09 0 0 0 .013-.154.112.112 0 0 0-.047-.017Zm1.68 5.239c.297 5.29 11.573 5.869 12.529.48 1.152-6.481-12.926-7.546-12.529-.48Z" fill="#c21c34"/><path d="M31.615 305.509c-3.398-3.094-5.311-10.88.618-12.61 7.667-2.238 8.56 3.888 10.729 9.226.525 1.295 1.601 1.899 2.867 1.282 1.637-.805 1.281-3.854.588-5.032-.568-.962-1.544-1.451-2.93-1.462-.164 0-.262-.084-.29-.253l-.694-4.39c-.023-.139.034-.217.173-.239 6.674-1.036 9.124 5.401 8.708 10.744-.318 4.117-2.907 5.778-6.702 6.348-4.506.678-9.013 1.334-13.529 1.967-.161.023-.258-.046-.282-.212l-.673-4.252a.516.516 0 0 1 .375-.578l.973-.26c.124-.034.166-.185.077-.27l-.008-.009Zm1.152-5.937c-.259 3.936 3.625 5.98 7.162 4.782.081-.025.101-.076.065-.153-.825-1.599-1.842-4.885-3.127-5.872-1.202-.929-3.973-.703-4.1 1.243Zm411.432 10.155c-4.18-3.629-2.037-10.936 3.122-11.913 1.149-.219 2.977-.108 5.479.334 4.019.706 8.042 1.399 12.068 2.076.151.026.214.116.181.27l-.968 4.813c-.029.144-.117.207-.264.181-3.852-.674-7.707-1.335-11.556-1.98-2.541-.427-4.683-.974-5.56 1.831-.91 2.907.176 4.691 3.259 5.348 1.711.364 5.814 1.078 12.309 2.139.175.028.245.127.211.3l-.943 4.778c-.028.137-.111.193-.251.168l-20.555-3.568c-.151-.025-.211-.113-.181-.267l.916-4.551a.225.225 0 0 1 .285-.177c.78.213 1.57.344 2.374.393.193.007.216-.052.074-.175ZM258.631 308.471c4.629 3.334 9.797 7.546 14.273 12.211.137.142.108.233-.086.274a153.52 153.52 0 0 1-14.919 2.604.293.293 0 0 1-.317-.169 70.183 70.183 0 0 0-10.787-15.268.14.14 0 0 1 .077-.23l.029-.001 11.391.466a.628.628 0 0 1 .339.113Zm-16.416-.393c-4.536 4.913-8.294 10.275-11.274 16.092a.313.313 0 0 1-.315.183c-5.202-.31-10.37-.868-15.513-1.677-.23-.038-.265-.138-.107-.308a103.7 103.7 0 0 1 15.085-13.258 3.207 3.207 0 0 1 1.618-.6 115.8 115.8 0 0 1 10.482-.475.027.027 0 0 1 .027.036l-.003.007Zm-191.376 6.453c4.908 1.637 7.003 8.69 2.864 11.834-.916.696-2.764 1.382-5.539 2.053-3.973.963-7.95 1.907-11.931 2.826-.124.028-.202-.02-.235-.144l-1.264-4.735c-.042-.158.018-.256.177-.29 4.097-.98 8.172-1.957 12.231-2.929 1.581-.377 3.56-1.017 3.45-2.937-.275-4.74-3.524-4.721-7.312-3.847a1044.82 1044.82 0 0 0-10.287 2.446c-.164.043-.27-.019-.316-.187l-1.273-4.628a.244.244 0 0 1 .184-.304l20.258-4.826a.272.272 0 0 1 .334.197l1.171 4.458c.035.13-.015.211-.147.243l-2.354.527c-.29.066-.293.147-.011.243Zm224.946 5.522c-3.964-3.868-7.755-7.55-12.041-10.909-.287-.226-.247-.319.114-.275 6.64.771 12.984 1.817 19.031 3.129 2.819.616 4.821 1.944 6.982 3.681.114.09.103.163-.034.215a145.734 145.734 0 0 1-13.701 4.251.354.354 0 0 1-.351-.092Zm-79.045-1.432c-.162-.044-.176-.121-.046-.226.897-.733 6.838-4.666 7.003-5.158a.32.32 0 0 1 .245-.231 171.085 171.085 0 0 1 21.533-3.928c.346-.042.382.045.106.261a105.41 105.41 0 0 0-13.6 12.626.386.386 0 0 1-.38.132 170.096 170.096 0 0 1-14.861-3.476Zm39.737 5.937a50.177 50.177 0 0 0-2.573-.022c-.226.008-.285-.089-.179-.286a67.344 67.344 0 0 1 10.608-14.741c.112-.116.219-.116.327 0a67.997 67.997 0 0 1 10.244 14.16c.07.134.031.205-.116.222-5.799.605-11.903.829-18.311.667Zm-44.755-7.549c-.265-.089-.265-.179 0-.265l4.79-1.604c.25-.084.272-.045.064.118l-2.837 2.231a.423.423 0 0 1-.422.072l-1.595-.552Zm103.598-.286a.132.132 0 0 1 .014-.212c.673-.423 1.274-.666 2.083-.361 10.437 3.903 20.939 8.61 30.014 15.784a.146.146 0 0 1-.032.246 152.006 152.006 0 0 1-14.176 5.508c-.15.052-.266.007-.346-.135a68.113 68.113 0 0 0-17.557-20.83Zm162.427 8.588c1.194 2.965.896 5.854-.897 8.674-2.025 3.178-6.462 3.289-9.186 1.203-3.196-2.45-2.324-5.768-1.875-9.605.224-1.925.715-3.52-1.769-4.015a.663.663 0 0 0-.44.063c-2.51 1.3-3.664 5.552-.396 6.882.13.053.172.142.13.273l-1.386 4.302c-.039.127-.122.174-.252.141-3.685-.987-5.358-3.388-5.018-7.202.499-5.67 3.858-10.926 10.462-9.223 4.54 1.165 9.064 2.38 13.575 3.646.141.039.191.128.147.267l-1.349 4.353c-.05.16-.159.227-.325.207l-1.274-.162c-.157-.013-.207.049-.147.196Zm-7.16 5.375c2.443 1.341 3.88-.13 4.057-2.487.263-3.442-2.148-4.428-4.973-5.194-.144-.04-.213.016-.201.166.182 2.051-.728 6.499 1.117 7.515Zm-157.892-12.949c7.204 5.798 13.277 12.428 17.74 20.596a.194.194 0 0 1-.111.281 201.14 201.14 0 0 1-19.771 5.049c-.203.039-.34-.04-.406-.236-2.697-7.864-6.911-14.459-12.169-20.887-.117-.142-.09-.24.087-.289a145.84 145.84 0 0 0 14.23-4.577.412.412 0 0 1 .4.063Zm-130.527 15.687c-.097-.035-.134-.157-.067-.233.124-.142.293-.296.503-.466a94.795 94.795 0 0 1 24.977-14.357.527.527 0 0 1 .394-.005l3.141 1.155c.154.058.169.139.048.243a66.557 66.557 0 0 0-14.451 18.009c-.078.137-.188.182-.338.133l-14.207-4.479Zm17.243 5.267a.271.271 0 0 1-.164-.394 65.583 65.583 0 0 1 14.767-17.676.381.381 0 0 1 .381-.082 145.024 145.024 0 0 0 15.374 3.75.155.155 0 0 1 .092.252 63.588 63.588 0 0 0-10.625 18.58.259.259 0 0 1-.292.161 284.84 284.84 0 0 1-19.533-4.591Zm86.398 8.49c-.24.017-.379-.091-.415-.327A74.627 74.627 0 0 0 259 326.235c-.081-.174-.026-.271.164-.297a152.391 152.391 0 0 0 15.622-2.835.385.385 0 0 1 .408.128 62.512 62.512 0 0 1 12.51 20.594.337.337 0 0 1-.261.451 239.869 239.869 0 0 1-21.634 2.905Zm-63.755-3.298a.37.37 0 0 1-.284-.499 62.056 62.056 0 0 1 10.922-18.351.372.372 0 0 1 .367-.132 151.4 151.4 0 0 0 16.347 1.905c.173.011.22.096.147.253a73.834 73.834 0 0 0-5.923 19.611c-.023.146-.106.21-.25.199a294.387 294.387 0 0 1-21.326-2.986Zm24.056 3.214a.07.07 0 0 1-.064-.084 75.933 75.933 0 0 1 6.152-19.83.289.289 0 0 1 .297-.183 187.4 187.4 0 0 0 23.589-.646c.151-.016.261.045.325.181a75.382 75.382 0 0 1 6.575 20.679.184.184 0 0 1-.172.21 252.455 252.455 0 0 1-36.702-.327Zm-167.256-4.653 4.73 10.549a.191.191 0 0 1-.106.254l-4.355 1.735a.192.192 0 0 1-.245-.098l-4.756-10.589a.19.19 0 0 0-.246-.098l-10.872 4.336a.193.193 0 0 1-.248-.095l-2.196-4.886a.189.189 0 0 1 .106-.252l26.243-10.426a.194.194 0 0 1 .246.095l7.815 17.339a.189.189 0 0 1-.102.256l-4.307 1.744a.188.188 0 0 1-.245-.102l-5.471-12.161a.194.194 0 0 0-.246-.098l-5.639 2.244a.188.188 0 0 0-.106.253Zm271.61-7.887c7.644 6.751 13.594 15.829 14.631 26.137.019.199-.07.299-.271.305l-26.661.567c-.165.001-.242-.077-.234-.24.455-7.327-.817-14.329-3.819-21.006-.069-.164-.02-.274.151-.33a135.509 135.509 0 0 0 15.238-6.025.382.382 0 0 1 .443.089c.129.141.305.308.522.503Zm101.646 10.544c-2.858-4.4.083-10.949 5.36-11.147 1.161-.045 3.101.447 5.822 1.471 3.717 1.397 7.437 2.804 11.154 4.214a.22.22 0 0 1 .122.293l-2.028 4.62a.147.147 0 0 1-.184.077 486.872 486.872 0 0 0-13.297-4.973c-2.237-.799-3.958 1.562-4.205 3.406-.321 2.403 1.351 3.465 3.486 4.304a589.303 589.303 0 0 0 10.884 4.133c.168.062.219.177.147.344l-1.946 4.501a.227.227 0 0 1-.291.123l-19.363-7.323c-.155-.061-.199-.169-.131-.322l1.845-4.27a.214.214 0 0 1 .279-.118l2.199.847c.233.089.28.03.147-.18Zm-256.663-4.815c.029.01.044.043.036.072-3.533 7.67-4.806 15.724-3.814 24.161.019.167-.055.252-.223.253l-25.297.526c-.186.003-.284-.087-.292-.271-.531-11.653 5.526-21.884 13.762-29.611a.324.324 0 0 1 .345-.082l15.483 4.952Zm20.684 23.958c-7.254.132-14.504.289-21.755.466-.135.005-.212-.059-.228-.196-1.02-8.173.218-15.971 3.719-23.394.062-.129.161-.177.301-.139a289.028 289.028 0 0 0 19.967 4.713c.169.033.232.135.188.304a56.91 56.91 0 0 0-1.976 11.84c-.093 1.601.011 4.088.006 6.178a.226.226 0 0 1-.222.228Zm115.595-23.183c2.945 6.413 4.193 13.272 3.775 20.298a.278.278 0 0 1-.269.262l-22.025.491c-.145.002-.216-.07-.212-.216a56.242 56.242 0 0 0-1.943-15.554c-.033-.137.015-.214.149-.241a209.399 209.399 0 0 0 20.246-5.162c.131-.041.224.002.279.122Zm-89.475 8.162c.264.026.488.051.668.076a.342.342 0 0 1 .293.377 82.08 82.08 0 0 0-.468 13.824.144.144 0 0 1-.14.151l-23.469.486c-.17.004-.259-.077-.271-.248a50.332 50.332 0 0 1 1.929-17.44c.04-.146.134-.205.285-.18a265.895 265.895 0 0 0 21.173 2.954Zm44.149 13.392a92.325 92.325 0 0 0-.52-12.685.224.224 0 0 1 .208-.254 239.874 239.874 0 0 0 22.234-2.979c.157-.029.256.032.297.183a49.004 49.004 0 0 1 1.815 15.088c-.005.119-.064.178-.181.182l-23.786.538a.069.069 0 0 1-.067-.073Zm-40.503-12.994c12.406 1.02 24.835 1.083 37.249.334.139-.007.216.057.233.19a75.6 75.6 0 0 1 .517 12.402.226.226 0 0 1-.221.219l-38.188.79a.258.258 0 0 1-.262-.245 97.452 97.452 0 0 1 .415-13.474.235.235 0 0 1 .257-.216Zm205.847 16.921c3.284 1.218 5.589.424 6.916-2.383.566-1.197.42-2.421-.45-3.367a.304.304 0 0 1-.039-.355l2.535-4.448c.076-.135.171-.149.284-.039 3.03 3.016 3.548 6.468 1.557 10.351-2.621 5.12-6.769 6.856-12.444 5.204-5.112-1.484-10.34-5.635-8.805-11.636 2.194-8.586 10.21-9.207 16.895-5.64a.221.221 0 0 1 .086.302l-6.64 11.719c-.079.139-.043.236.105.292Zm-3.232-2.06 3.859-6.577a.295.295 0 0 0-.107-.405l-.041-.027c-2-1.174-4.539-.564-5.671 1.363l-.064.111c-1.131 1.927-.424 4.442 1.574 5.616l.043.025a.299.299 0 0 0 .407-.106ZM63.5 382.859c-3.519-1.285-5.717-3.661-6.597-7.131-.919-3.62 3.215-6.287 6.296-6.508 3.858-.279 6.84 3.846 9.275 6.249 1.51 1.495 3.904.758 3.549-1.535-.35-2.251-2.669-4.482-5.297-3.393a.319.319 0 0 1-.384-.115l-2.574-3.814a.235.235 0 0 1 .101-.349l1.278-.569c.132-.057.175-.155.128-.294-1.396-3.941-4.177-4.701-7.785-2.975a755.221 755.221 0 0 0-9.356 4.57c-.12.059-.213.03-.275-.084l-2.395-4.284c-.085-.148-.05-.261.101-.332l18.526-9.14c.132-.069.236-.038.306.092l2.253 3.999a.254.254 0 0 1-.114.354l-1.558.711c-.28.128-.268.218.035.272 2.598.474 4.398 1.934 5.408 4.384.036.086.011.153-.073.194l-4.269 2.078a.084.084 0 0 0-.006.145c.018.011.039.015.062.011 5.155-.99 9.996 4.228 10.758 8.95.707 4.372-2.204 5.907-5.894 8.144a453.407 453.407 0 0 1-9.575 5.654.21.21 0 0 1-.279-.068l-2.572-3.856c-.08-.122-.066-.226.042-.321l.925-.804c.123-.104.108-.183-.04-.235Zm.326-3.591c2.651 1.872 4.417.734 6.907-.451.145-.068.155-.151.03-.251-2.119-1.657-5.246-5.873-8.084-3.619-1.669 1.323-.128 3.422 1.147 4.321Zm248.16 2.997c-.085-.024-.126-.12-.085-.198a53.773 53.773 0 0 0 5.771-17.662c.034-.225.164-.342.393-.345l26.902-.543c.161-.003.239.076.234.237-.25 10.104-4.781 18.931-11.766 26.031a.28.28 0 0 1-.334.066 170.039 170.039 0 0 0-21.115-7.586Zm-21.353-4.992c-.035-.005-.057-.044-.046-.08a62.592 62.592 0 0 0 2.215-12.31c.012-.173.106-.261.277-.266l21.897-.432c.172-.004.245.08.215.25a53.464 53.464 0 0 1-5.686 16.899c-.068.131-.173.175-.314.137a221.86 221.86 0 0 0-18.558-4.198Zm-25.247-3.068c-.027-.003-.047-.024-.044-.051l.978-8.759c.014-.122.083-.182.207-.186l23.61-.495a.206.206 0 0 1 .213.222 62.14 62.14 0 0 1-2.154 11.577c-.058.205-.194.29-.408.258a234.653 234.653 0 0 0-22.402-2.566Zm-2.799-.189c-11.979-.484-23.801-.21-35.737.989-.184.017-.287-.066-.313-.249l-1.147-8.354c-.024-.183.054-.277.241-.282l37.981-.865c.176-.003.252.083.231.254l-.989 8.282c-.02.156-.109.231-.267.225Zm141.184 2.521a.127.127 0 0 1-.04-.179l2.844-4.035c.092-.131.204-.155.341-.072l4.386 2.69c.127.076.29.044.373-.076l6.222-8.796c.101-.14.223-.164.37-.076l2.974 1.806a.17.17 0 0 1 .053.246l-6.234 8.851c-.096.137-.076.253.064.342 1.974 1.309 7.803 5.451 9.937 5.416 2.102-.033 3.78-2.626 2.672-4.383-.993-1.571-4.57-3.394-6.33-4.436-.132-.082-.157-.183-.066-.309l2.63-3.699c.113-.161.255-.191.422-.085 2.498 1.525 5.834 3.21 7.457 5.368 2.222 2.951 1.977 6.074-.736 9.372-3.202 3.898-7.098 4.461-11.684 1.685a1264.808 1264.808 0 0 1-15.655-9.63Zm-201.933 2.284c-1.318-4.226-2.255-8.263-2.741-11.852-.029-.19.054-.29.248-.294l23.288-.496c.145-.004.227.07.248.215l1.198 8.737a.214.214 0 0 1-.188.242 235.967 235.967 0 0 0-21.7 3.651c-.179.042-.297-.029-.353-.203Zm-20.182 5.675a.06.06 0 0 1-.062-.027 55.851 55.851 0 0 1-6.958-17.112c-.02-.074.036-.146.117-.151l21.661-.453c.135-.003.211.063.228.201a63.53 63.53 0 0 0 2.809 12.456c.045.143-.004.231-.147.268a272.612 272.612 0 0 0-17.648 4.818Zm-21.565 7.786c-7.086-6.395-12.469-14.714-14.051-24.259a.165.165 0 0 1 .162-.191l25.587-.576c.208-.001.331.098.374.301a56.618 56.618 0 0 0 6.893 17.49.247.247 0 0 1-.131.359 246.5 246.5 0 0 0-18.462 6.938.346.346 0 0 1-.372-.062Zm237.873-12.238 3.255-4.014a.135.135 0 0 1 .182-.027l23.036 16.235a.136.136 0 0 1 .026.201l-3.254 4.019a.137.137 0 0 1-.181.026l-23.037-16.241a.136.136 0 0 1-.027-.199Zm-144.986 19.928a157.212 157.212 0 0 0-17.764.595.287.287 0 0 1-.311-.179 115.677 115.677 0 0 1-7.71-22.62c-.034-.151.027-.237.182-.255a229.294 229.294 0 0 1 34.713-.997c.171.009.238.095.204.257a117.386 117.386 0 0 1-7.313 23.063.361.361 0 0 1-.286.214c-.602.073-1.249-.068-1.715-.078Zm4.811.264a.198.198 0 0 1-.169-.273 116.984 116.984 0 0 0 7.153-23.062c.032-.162.131-.235.295-.226a260.902 260.902 0 0 1 22.002 2.544c.193.03.259.14.193.327a85.873 85.873 0 0 1-12.228 22.862.35.35 0 0 1-.366.143 137.937 137.937 0 0 0-16.88-2.315Zm-41.915 3.634a.067.067 0 0 1-.071-.023 87.23 87.23 0 0 1-12.911-22.098c-.071-.175-.014-.281.168-.322a248.346 248.346 0 0 1 21.404-3.6c.14-.016.226.043.258.181a115.566 115.566 0 0 0 7.593 22.652c.074.155.025.247-.147.267a152.312 152.312 0 0 0-16.294 2.943ZM85.209 383.685c5.968-.413 11.726 7.56 5.953 11.846a901.95 901.95 0 0 1-12.226 8.916.202.202 0 0 1-.268-.035l-3.264-3.924a.169.169 0 0 1 .032-.243c3.409-2.447 6.811-4.908 10.201-7.387 1.666-1.224 2.849-2.637 1.287-4.66-1.88-2.437-4.094-2.743-6.647-.92a692.617 692.617 0 0 0-9.69 7.061.24.24 0 0 1-.324-.039l-3.21-3.892a.166.166 0 0 1 .032-.246l16.584-12.063a.229.229 0 0 1 .316.037l3.044 3.643c.089.107.078.203-.033.288l-1.875 1.379a.13.13 0 0 0 .02.225h.001c.022.01.044.015.067.014Zm192.472 19.425a.053.053 0 0 1-.031-.077 86.969 86.969 0 0 0 12.108-23.103c.053-.156.161-.219.324-.191a232.706 232.706 0 0 1 17.833 4.002c.205.054.252.172.138.356a106.293 106.293 0 0 1-18.308 22.242.339.339 0 0 1-.339.08l-11.725-3.309Zm-78.191 2.868a113.473 113.473 0 0 1-16.423-19.05.222.222 0 0 1 .128-.341l16.829-4.57c.182-.048.31.014.379.189a89.26 89.26 0 0 0 12.595 22.132.141.141 0 0 1-.071.22l-10.886 3.395a.35.35 0 0 1-.329-.057 37.57 37.57 0 0 1-2.222-1.918Zm92.892 1.553a.118.118 0 0 1-.039-.195 105.986 105.986 0 0 0 18.239-22.641.265.265 0 0 1 .306-.123 171.643 171.643 0 0 1 20.119 7.105c.275.114.302.274.082.473-9.084 8.188-19.985 13.987-31.354 18.161a.513.513 0 0 1-.372-.004l-6.981-2.776Zm-129.315-12.862c-.151-.107-.329-.141-.457-.322a.132.132 0 0 1 .059-.199 262.579 262.579 0 0 1 17.608-6.526c.138-.044.247-.007.33.115a110.86 110.86 0 0 0 18.472 21.156c.12.108.105.194-.042.256l-4.722 2.026a.486.486 0 0 1-.342.016c-11.493-3.705-21.192-9.322-30.906-16.522Zm251.739 7.019a.172.172 0 0 0-.258.154v.001c.137 5.719-6.862 11.514-12.122 6.616-6.178-5.761 4.289-11.913 2.293-14.461-2.307-2.939-7.482 2.07-4.761 5.027.122.131.122.26 0 .395l-3.148 3.422c-.098.108-.201.114-.308.017-4.922-4.29-1.638-9.316 2.187-12.613 4.686-4.029 8.132-1.9 12.504 1.599 2.78 2.223 5.55 4.459 8.31 6.71.108.088.114.183.022.284l-3.197 3.436a.287.287 0 0 1-.348.056l-1.174-.643Zm-9.399 1.171c.069 1.388 1.847 2.962 3.206 2.285 1.829-.918 2.927-3.096 2.537-5.135-.309-1.598-1.667-2.404-2.726-3.387-.089-.084-.16-.07-.214.043-.71 1.465-2.878 4.708-2.803 6.194ZM100.6 403.863c-1.019-3.458-4.244-3.833-6.936-2.034-1.62 1.087-3.276 2.538-4.105 4.364-1.736 3.848 2.514 6.703 5.693 4.661.121-.077.23-.064.329.036l3.528 3.531c.124.121.113.229-.033.322-8.005 5.047-19.688-3.645-13.705-12.324 4.086-5.927 11.846-9.731 17.83-3.333 3.222 3.44 4.088 7.713.657 11.548-.113.127-.231.13-.353.011l-3.545-3.512c-.12-.12-.133-.246-.037-.385.604-.875.993-1.801.677-2.885Zm288.128 2.877-6.986 6.262a.153.153 0 0 1-.207-.004l-2.91-2.766a.152.152 0 0 1 .003-.225l12.357-11.126a.151.151 0 0 1 .206.005l3.001 2.978a.157.157 0 0 1 .045.103l.539 14.866a.151.151 0 0 0 .23.126h.001c.006-.005.015-.01.021-.017l7.745-6.945a.152.152 0 0 1 .207.005l2.995 2.89a.15.15 0 0 1-.004.224l-13.12 11.765a.155.155 0 0 1-.21-.007l-2.851-2.851a.147.147 0 0 1-.046-.101l-.762-15.076a.151.151 0 0 0-.234-.12l-.02.014Z" fill="#c21c34"/><rect width="5.467" height="5.111" x="-2.733" y="-2.556" fill="#c21c34" rx=".26" transform="rotate(42.7 -459.245 349.71)"/><path d="M245.077 418.799c-.044.073-.089.073-.133 0a167.123 167.123 0 0 1-8.693-15.53.179.179 0 0 1 .146-.258 145.39 145.39 0 0 1 17.149-.47c.099.004.165.11.122.201a151.64 151.64 0 0 1-8.591 16.057Zm28.039-13.989c.06.011.069.041.034.088-3.77 4.915-8.536 10.291-13.711 13.76a.673.673 0 0 1-.367.124l-11.031.454c-.118.008-.199-.119-.145-.227a171.977 171.977 0 0 0 8.459-16.098.313.313 0 0 1 .33-.2 132.416 132.416 0 0 1 16.431 2.099Zm-41.798 13.513c-3.191-.135-11.286-9.293-13.586-12.099-.061-.075-.025-.185.067-.203a147.611 147.611 0 0 1 15.445-2.671c.162-.02.276.044.345.191a168.581 168.581 0 0 0 8.121 14.793c.093.15.053.225-.123.225a319.693 319.693 0 0 1-10.269-.236Zm55.74-9.974c.19.05.254.29.115.428-.003.005-.005.006-.009.01a224.52 224.52 0 0 1-7.891 6.76 3.55 3.55 0 0 1-1.582.74 165.668 165.668 0 0 1-13.275 1.978.09.09 0 0 1-.101-.117.07.07 0 0 1 .03-.038 96.97 96.97 0 0 0 11.504-12.58.363.363 0 0 1 .415-.138l10.794 2.957ZM95.413 420.521l14.313-14.49a.162.162 0 0 1 .23-.01l3.908 3.373c.074.06.081.171.015.24l-14.33 14.484a.167.167 0 0 1-.228.007l-3.897-3.363a.16.16 0 0 1-.011-.241Zm108.964-10.253a.282.282 0 0 1 .091-.481h.002l.013-.005 10.116-3.029a.345.345 0 0 1 .402.127 90.476 90.476 0 0 0 10.745 11.121c.136.121.115.17-.066.151a142.905 142.905 0 0 1-13.396-2.068c-2.221-.45-6.041-4.203-7.907-5.816Zm91.041 1.427a50.671 50.671 0 0 1-8.801 2.578c-.575.112-1.518.474-2.293.583-.165.025-.187-.019-.063-.131l5.785-5.133a.315.315 0 0 1 .346-.068l5.024 1.887c.245.095.246.188.002.284Zm73.711 5.633 8.869-6.658a.237.237 0 0 1 .326.038l2.192 2.572c.113.135.099.252-.043.357l-8.797 6.621c-.118.087-.129.188-.039.301a228.08 228.08 0 0 0 5.845 6.804c1.34 1.503 3.177 1.762 4.777.483 3.097-2.476-1.895-6.829-3.496-8.713-.104-.124-.091-.235.038-.334l3.737-2.796c.104-.077.2-.068.288.025 2.06 2.199 5.2 5.483 5.689 8.264 1.136 6.439-7.745 11.641-13.068 8.408-.815-.498-1.97-1.608-3.462-3.335a2237.808 2237.808 0 0 1-10.858-12.66c-.098-.117-.087-.22.034-.309l3.983-2.984c.123-.093.238-.079.343.038l3.311 3.843a.249.249 0 0 0 .331.035Zm-171.121-4.762a.122.122 0 0 1-.059-.204.117.117 0 0 1 .044-.029l3.119-1.26a.392.392 0 0 1 .431.067l3.816 3.266c.201.171.173.224-.079.153l-7.272-1.993Zm-76.73 17.827c-3.946 11.149-22.495-1.361-16.283-9.505.087-.109.186-.121.3-.035l4.157 3.144c.112.087.133.191.059.311-2.113 3.515 4.591 7.726 6.065 5.044 1.701-3.085-9.366-8.649-4.298-14.552 3.615-4.2 9.53-.968 12.605 2.077 2.718 2.689 3.644 5.781 1.162 8.97-.078.103-.167.117-.268.04l-3.875-2.904c-.131-.099-.153-.217-.069-.355 1.588-2.631-2.771-6.059-4.629-5.216-1.363.617-.751 2.148-.082 3.076 1.572 2.17 6.163 7.063 5.156 9.905Zm237.717 7.756c1.308 1.784 2.99 2.509 5.038 2.18 1.695-.278 4.05-2.134 3.552-4.233a.344.344 0 0 1 .159-.375l4.487-2.729a.2.2 0 0 1 .3.122c1.355 5.423-1.807 9.182-6.495 11.159-3.538 1.489-6.782 1.051-9.732-1.309-3.512-2.809-6.728-7.983-4.943-12.44 1.216-3.025 4.883-5.79 8.035-6.389 5.027-.957 8.979 2.251 11.579 6.158.078.112.058.208-.065.281l-11.861 7.286c-.123.078-.141.174-.054.289Zm-1.844-3.148 6.904-4.116c.1-.059.133-.19.073-.287l-.032-.053a4.164 4.164 0 0 0-5.708-1.447l-.108.066a4.165 4.165 0 0 0-1.443 5.714l.03.05a.207.207 0 0 0 .284.073Zm-219.362 7.18c-7.02 6.852-20.527.34-16.079-9.788 1.462-3.329 4.145-6.701 7.711-7.848 3.784-1.214 8.393.66 10.948 3.531 2.257 2.525 2.696 5.408 1.315 8.643-.198.472-.516.572-.949.306l-3.946-2.413c-.131-.082-.173-.198-.123-.341.71-2.05.143-3.62-1.696-4.708-3.811-2.254-7.143 2.434-8.323 5.365-1.759 4.373 3.184 7.28 6.432 4.325.112-.104.235-.115.367-.034l4.313 2.684c.128.081.137.174.03.278Zm213.455 7.007a.11.11 0 0 0-.189-.012c-.002.001-.002.002-.002.005a.088.088 0 0 0-.017.05c-.686 5.611-7.939 8.18-12.126 4.663-.95-.794-2.103-2.409-3.463-4.849-1.693-3.035-3.38-6.072-5.059-9.115-.069-.125-.039-.216.088-.278l4.645-2.312c.131-.065.229-.032.297.093a665.635 665.635 0 0 0 6 10.728c.846 1.481 1.968 2.533 3.664 2.208 4.164-.8 4.267-4.036 2.561-7.091a1493.137 1493.137 0 0 1-5.133-9.277.217.217 0 0 1 .093-.304l4.591-2.222c.137-.067.244-.033.322.103l9.587 17.281c.084.152.049.264-.104.338l-4.353 2.102c-.124.063-.222.031-.295-.091l-1.107-2.02Zm-191.58-.918c-6.504 14.548-28.655 3.646-19.015-9.698 2.766-3.828 7.04-5.518 11.751-4.227 6.434 1.764 10.252 7.246 7.264 13.925Zm-14.179 1.028c2.899 2.251 5.823 1.464 7.859-1.319 1.293-1.779 2.833-5.062 1.268-7.068-1.937-2.483-5.734-3.173-8.044-.667-2.128 2.307-4.276 6.57-1.083 9.054Z" fill="#c21c34"/><path d="M322.865 464.552c-.579.059-1.156.125-1.733.195-8.534 1.054-13.475-5.868-14.977-13.341-1.752-8.717 4.665-14.277 12.676-15.215 13.083-1.532 22.028 19.012 9.582 25.981-.117.063-.156.161-.117.29 1.317 4.52 7.491 4.038 5.75-1.604a.244.244 0 0 1 .153-.301l4.574-1.593c.137-.049.228-.005.275.131.464 1.29.661 2.659.588 4.028-.349 6.241-7.982 9.517-12.974 6.258-1.623-1.06-2.782-2.601-3.477-4.621-.054-.153-.162-.221-.32-.208Zm-6.565-6.02c3.01 2.419 7.607 1.761 10.303-.758 3.826-3.571 1.529-9.858-1.115-13.392-1.892-2.522-4.402-3.481-7.538-2.875-5.237 1.009-6.94 4.992-5.631 9.911.613 2.31 2.039 5.552 3.981 7.114Zm-135.293 6.985c-1.987 1.208-4.102 1.438-6.343.69-7.607-2.544-6.96-11.011-3.176-16.468 3.774-5.452 11.884-5.492 14.822.833.101.217.192.213.274-.012l3.154-8.72c.056-.157.161-.211.322-.161l4.839 1.519c.132.042.174.127.125.262l-9.23 25.463c-.055.158-.165.212-.323.162l-4.655-1.451a.266.266 0 0 1-.173-.342l.56-1.615c.08-.236.016-.29-.196-.16Zm-4.827-3.651c5.294 3.621 10.207-5.034 7.933-9.008-.94-1.647-3.393-2.379-5.069-1.981-3.847.923-6.401 8.573-2.864 10.989Zm92.272-8.797-1.471-1.896a.135.135 0 0 1 .028-.191l8.087-5.78a.138.138 0 0 1 .186.024l2.28 2.863a.135.135 0 0 1-.043.203l-8.894 4.812a.138.138 0 0 1-.173-.035Zm-48.508 22.37 11.868-26.061a.147.147 0 0 1 .145-.088l6.786.307c.064.001.12.044.136.104l8.311 27.175a.148.148 0 0 1-.149.19l-6.223-.327a.151.151 0 0 1-.137-.109l-1.42-5.437a.155.155 0 0 0-.136-.112l-10.385-.519a.144.144 0 0 0-.143.088l-2.306 5.261a.15.15 0 0 1-.144.088l-6.074-.348a.148.148 0 0 1-.129-.212Zm10.697-9.707a.15.15 0 0 0 .128.205l6.825.44a.15.15 0 0 0 .152-.186l-2.764-10.268a.147.147 0 0 0-.247-.063.175.175 0 0 0-.033.049l-4.061 9.823Zm-35.326-3.057c-.361 3.674 1.349 5.561 5.123 5.658.984.025 1.828-.433 2.532-1.368a.269.269 0 0 1 .305-.113l5.359 1.165a.105.105 0 0 1 .066.162c-5.146 7.706-19.298 4.972-18.908-5.302.313-8.207 6.301-13.527 14.468-10.674 6.134 2.143 6.963 7.467 5.465 13.096a.151.151 0 0 1-.176.109l-13.978-2.923c-.155-.035-.24.028-.256.19Zm1.2-3.405 8.255 1.606a.081.081 0 0 0 .098-.063v-.013a4.23 4.23 0 0 0-3.357-4.955l-.088-.018a4.232 4.232 0 0 0-4.972 3.341v.011c-.01.044.02.083.064.091Zm87.064 4.903c-3.499-.599-5.893-3.513-4.722-7.088 1.324-4.038 8.768-5.269 12.02-4.966 2.904.276 4.811 1.889 5.721 4.846.041.125-.005.2-.133.225l-4.863.956c-.166.034-.283-.029-.352-.186-1.379-3.248-8.152-1.507-7.116.994.585 1.406 8.131 1.534 9.669 1.634 4.477.295 6.943 5.103 4.307 8.718-3.501 4.792-16.27 6.218-18.424-.986-.052-.171.011-.271.187-.308l5.174-.987a.314.314 0 0 1 .357.203c.977 2.842 4.929 2.027 6.947 1.063 2.577-1.225.777-3.442-1.264-3.472-2.705-.039-5.208-.256-7.508-.646Z" fill="#c21c34"/><rect width="5.652" height="19.997" x="-2.826" y="-10" fill="#c21c34" rx=".27" transform="rotate(-7.5 3685.24 -1849.754)"/><path d="M249.911 465.673c-2.052-1.565-2.015-4.936-.787-6.646 2.263-3.157 8.331-3.526 11.843-2.936 3.002.498 4.862 2.382 5.587 5.652.035.163-.029.25-.195.257l-4.991.226c-.133.008-.223-.052-.265-.183-.466-1.357-1.545-2.085-3.238-2.187-1.24-.072-4.117.124-4.125 1.688-.008 2.065 7.553 3.072 9.206 3.458 2.456.576 4.093 1.596 4.521 4.248.639 3.973-2.016 6.178-5.619 7.116-5.023 1.313-12.809.668-13.952-5.703a.202.202 0 0 1 .192-.241l5.403-.252c.115-.002.183.049.212.162 1.009 4.248 10.197 2.721 7.856-.644-.274-.393-.869-.676-1.791-.845-3.324-.613-7.103-1.074-9.857-3.17Z" fill="#c21c34"/></svg>